<?xml version="1.0" standalone="no"?>
<!DOCTYPE svg PUBLIC "-//W3C//DTD SVG 20010904//EN"
 "http://www.w3.org/TR/2001/REC-SVG-20010904/DTD/svg10.dtd">
<svg version="1.0" xmlns="http://www.w3.org/2000/svg"
 width="192.000000pt" height="192.000000pt" viewBox="0 0 192.000000 192.000000"
 preserveAspectRatio="xMidYMid meet">

<g transform="translate(0.000000,192.000000) scale(0.100000,-0.100000)"
fill="#000000" stroke="none">
<path d="M890 1763 c-18 -15 -46 -34 -64 -42 -36 -19 -44 -45 -21 -71 16 -17
16 -21 1 -42 -31 -44 -15 -141 28 -170 20 -13 18 1 -5 32 -42 56 -20 152 39
167 25 6 183 -10 215 -22 13 -6 17 -2 17 16 0 27 -36 87 -41 70 -3 -6 -17 -2
-37 11 -18 11 -30 23 -27 26 2 3 13 -2 23 -11 21 -19 32 -22 32 -8 0 5 -14 14
-30 21 -24 10 -33 10 -45 0 -8 -7 -15 -8 -15 -3 0 5 -17 7 -37 6 l-38 -4 29
17 c59 33 161 -5 182 -68 6 -20 24 -25 24 -6 0 19 -50 77 -80 93 -48 25 -113
19 -150 -12z m65 -67 c69 -18 133 -47 117 -53 -7 -3 -24 3 -38 12 -19 12 -46
16 -120 14 -101 -2 -121 4 -90 27 25 18 66 18 131 0z"/>
<path d="M830 1681 c0 -4 11 -6 25 -3 14 2 25 6 25 8 0 2 -11 4 -25 4 -14 0
-25 -4 -25 -9z"/>
<path d="M1120 1613 c0 -5 9 -19 20 -33 33 -42 26 -87 -20 -132 -23 -21 -47
-38 -54 -38 -7 0 -23 -9 -36 -20 -30 -26 -81 -26 -105 0 -10 11 -22 17 -27 14
-5 -3 1 -17 13 -30 24 -26 18 -45 -9 -28 -9 6 -18 23 -20 38 -3 23 -7 27 -25
22 -12 -3 -25 -6 -29 -6 -4 0 -14 -13 -22 -28 -14 -27 -17 -29 -61 -22 -52 8
-65 -3 -46 -39 20 -37 14 -48 -26 -47 -32 1 -38 -2 -38 -19 0 -11 -9 -39 -19
-63 l-19 -42 30 -43 c26 -35 37 -42 70 -45 l39 -3 -10 -73 c-11 -93 -7 -106
39 -106 40 0 39 4 8 -109 -19 -67 -15 -323 6 -359 18 -34 24 -21 12 25 -26 93
-4 396 31 441 21 25 54 14 72 -25 10 -21 42 -77 73 -125 51 -82 57 -87 81 -82
15 4 35 11 46 16 15 8 24 3 48 -23 30 -32 30 -35 24 -105 -4 -39 -11 -86 -16
-104 -10 -36 -5 -54 10 -30 13 21 30 129 30 192 0 45 4 58 25 78 14 13 25 27
25 32 0 5 11 34 25 64 14 30 25 60 25 67 0 7 -20 33 -45 57 -47 46 -55 67 -30
76 22 9 19 118 -5 196 -11 36 -37 92 -59 125 -59 91 -60 111 -11 160 32 33 40
48 40 78 0 37 -33 105 -51 105 -5 0 -9 -3 -9 -7z m-36 -245 c16 -60 -4 -162
-35 -178 -12 -7 -24 -4 -43 11 -30 23 -47 19 -26 -6 52 -62 106 -31 128 72 l8
38 42 -85 c30 -61 44 -106 51 -160 6 -41 8 -76 6 -78 -2 -2 -11 10 -20 28 -15
29 -19 31 -52 25 -33 -6 -39 -2 -117 73 -46 44 -95 88 -110 97 -15 10 -34 31
-42 47 -8 16 -29 41 -45 56 -28 26 -29 28 -14 50 19 25 35 29 35 7 0 -9 19
-36 42 -61 37 -40 40 -48 29 -66 -11 -17 -10 -19 6 -16 26 5 28 46 3 73 l-21
22 21 6 c31 8 72 -13 64 -32 -35 -85 3 -54 42 34 16 35 32 65 35 65 4 0 9 -10
13 -22z m-64 -23 c-7 -8 -20 -15 -29 -15 -13 1 -13 3 3 15 26 19 42 19 26 0z
m-245 -25 c3 -5 1 -10 -4 -10 -6 0 -11 5 -11 10 0 6 2 10 4 10 3 0 8 -4 11
-10z m-41 -16 c3 -8 2 -12 -4 -9 -6 3 -10 10 -10 16 0 14 7 11 14 -7z m116
-40 c0 -2 -7 -4 -15 -4 -8 0 -15 4 -15 10 0 5 7 7 15 4 8 -4 15 -8 15 -10z
m-92 -29 c-3 -3 -9 2 -12 12 -6 14 -5 15 5 6 7 -7 10 -15 7 -18z m-3 -35 c3
-5 2 -10 -4 -10 -5 0 -13 5 -16 10 -3 6 -2 10 4 10 5 0 13 -4 16 -10z m148
-18 c23 -20 22 -42 -3 -42 -11 0 -20 7 -20 15 0 9 6 12 18 9 14 -5 14 -3 -2
10 -22 18 -40 21 -31 6 3 -5 1 -10 -4 -10 -6 0 -11 9 -11 20 0 22 22 18 53 -8z
m-255 -29 c-26 -28 -33 -19 -18 22 9 23 13 25 25 15 14 -12 13 -16 -7 -37z
m52 -8 c0 -10 11 -15 38 -16 30 -2 32 -3 10 -6 -33 -5 -37 -23 -5 -23 20 0 19
-3 -11 -21 -30 -20 -34 -20 -57 -5 -27 18 -31 36 -15 67 13 23 40 26 40 4z
m146 -21 c3 -13 9 -22 13 -20 3 2 12 -2 19 -10 15 -17 11 -18 -21 -3 -26 12
-56 72 -31 62 8 -3 17 -16 20 -29z m104 6 c0 -5 -4 -10 -10 -10 -5 0 -10 5
-10 10 0 6 5 10 10 10 6 0 10 -4 10 -10z m60 -70 c22 -1 23 -2 8 -11 -25 -14
-22 -26 7 -31 26 -5 35 6 13 15 -7 3 -8 6 -3 6 6 0 16 -3 24 -8 12 -8 12 -12
-2 -26 -10 -9 -17 -11 -17 -5 0 6 -5 8 -10 5 -6 -4 -2 -18 10 -36 12 -16 17
-29 11 -29 -6 0 -11 4 -11 9 0 6 -22 36 -48 68 -30 37 -46 65 -44 77 4 17 6
17 20 -7 11 -18 25 -27 42 -27z m-195 -80 c9 -19 24 -43 33 -53 21 -23 11 -30
-55 -35 l-56 -5 6 62 c4 34 10 73 13 86 l6 25 18 -23 c9 -12 25 -38 35 -57z
m110 59 c4 -5 9 -29 12 -52 6 -56 11 -61 40 -41 24 15 26 15 20 0 -4 -10 -3
-14 2 -11 16 9 31 -27 20 -48 -10 -17 -12 -16 -42 9 -42 35 -68 79 -61 101 5
14 4 15 -4 4 -7 -10 -11 -10 -17 -1 -4 7 -2 16 5 20 7 4 9 13 6 19 -4 6 -3 11
3 11 5 0 13 -5 16 -11z m-50 -74 c7 -6 30 -42 51 -80 26 -49 32 -65 18 -53
-11 10 -30 37 -42 60 -11 24 -32 58 -47 77 -14 19 -25 40 -25 45 0 6 7 -1 16
-14 10 -14 23 -30 29 -35z m310 14 c5 -22 1 -30 -24 -48 -30 -22 -43 -17 -19
7 20 20 0 25 -26 5 -14 -10 -26 -21 -26 -24 0 -9 38 -19 73 -19 28 0 51 -30
29 -38 -7 -2 -12 -11 -12 -19 0 -9 6 -13 15 -9 11 4 15 -1 15 -17 0 -18 -2
-19 -11 -7 -9 13 -10 13 -6 0 2 -8 13 -15 25 -15 12 0 21 -4 19 -10 -1 -5 -5
-9 -9 -8 -5 2 -8 -4 -8 -13 0 -10 -10 -4 -27 17 -19 22 -28 44 -28 67 0 33 -3
36 -47 49 -57 16 -61 33 -13 56 33 16 51 46 20 33 -8 -3 -22 -9 -30 -12 -8 -3
-15 -2 -15 3 0 18 77 46 92 34 4 -3 10 -18 13 -32z m-121 -105 c9 -8 17 -27
18 -42 1 -15 2 -36 3 -47 2 -46 39 -59 60 -23 9 16 14 13 37 -24 26 -39 28
-58 7 -58 -5 0 -9 11 -9 25 0 21 -3 24 -17 17 -31 -18 -112 26 -96 52 4 5 1 6
-4 3 -6 -4 -18 2 -27 12 -14 16 -16 26 -8 54 6 20 7 38 4 41 -3 3 0 6 6 6 6 0
18 -7 26 -16z m-29 -137 c6 -5 3 -7 -7 -3 -10 3 -18 1 -18 -4 0 -6 6 -10 13
-10 19 0 41 -40 28 -53 -8 -8 -11 -7 -11 2 0 7 -4 10 -8 7 -12 -7 -62 92 -56
109 5 12 11 9 27 -13 12 -15 26 -31 32 -35z m105 33 c0 -5 -9 -10 -21 -10 -11
0 -17 5 -14 10 3 6 13 10 21 10 8 0 14 -4 14 -10z m-61 -94 c-3 -3 -11 5 -18
17 -13 21 -12 21 5 5 10 -10 16 -20 13 -22z"/>
<path d="M975 910 c3 -5 8 -10 11 -10 2 0 4 5 4 10 0 6 -5 10 -11 10 -5 0 -7
-4 -4 -10z"/>
<path d="M1047 828 c4 -19 3 -20 -6 -8 -9 13 -11 13 -11 -2 0 -21 12 -29 29
-19 10 7 10 13 2 30 -15 27 -20 27 -14 -1z"/>
<path d="M860 1559 c0 -43 -2 -50 -14 -40 -9 7 -17 8 -20 3 -7 -12 101 -122
120 -122 21 0 17 28 -6 35 -37 12 -60 54 -60 111 0 29 -4 56 -10 59 -6 4 -10
-14 -10 -46z"/>
<path d="M907 1584 c-8 -8 1 -24 14 -24 5 0 9 7 9 15 0 15 -12 20 -23 9z"/>
<path d="M1010 1574 c0 -9 5 -14 12 -12 18 6 21 28 4 28 -9 0 -16 -7 -16 -16z"/>
<path d="M1090 1560 c0 -52 -26 -97 -72 -126 -53 -33 -53 -33 -45 -40 3 -3 41
13 84 37 65 36 74 44 56 49 -17 4 -20 9 -13 20 13 20 13 90 0 90 -5 0 -10 -14
-10 -30z"/>
<path d="M970 1530 c0 -5 5 -10 11 -10 5 0 7 5 4 10 -3 6 -8 10 -11 10 -2 0
-4 -4 -4 -10z"/>
<path d="M940 1489 c0 -20 63 -24 79 -6 9 11 3 14 -34 13 -25 -1 -45 -4 -45
-7z"/>
<path d="M957 483 l6 -115 -71 4 c-72 3 -80 1 -63 -17 5 -6 11 -38 15 -72 l6
-63 -39 0 c-31 0 -44 -6 -60 -26 -25 -32 -26 -38 -5 -58 13 -14 48 -16 228
-16 218 0 236 3 236 40 0 27 -43 60 -78 60 l-32 0 0 65 c0 50 4 66 18 75 13 8
6 10 -33 9 -27 0 -63 0 -79 0 l-29 1 7 113 c6 108 6 113 -13 114 -19 2 -20 -3
-14 -114z m3 -213 c0 -47 4 -80 10 -80 6 0 10 33 10 80 l0 80 53 0 52 0 -5
-47 c-4 -45 -5 -46 -8 -12 -3 32 -7 38 -34 43 -17 3 -32 5 -34 3 -2 -1 -6 -44
-10 -95 -6 -80 -9 -92 -25 -92 -17 0 -19 9 -19 89 0 50 -4 92 -9 95 -5 3 -23
3 -39 0 -24 -5 -32 -13 -35 -33 -3 -19 -4 -17 -6 12 l-1 37 50 0 50 0 0 -80z
m-80 -49 l0 -49 -47 6 c-36 4 -49 1 -59 -12 -7 -10 -15 -13 -18 -7 -14 21 26
43 71 38 l43 -5 0 39 c0 22 2 39 5 39 3 0 5 -22 5 -49z m236 -23 c28 2 46 -2
58 -13 23 -23 20 -42 -4 -20 -15 13 -30 16 -65 13 l-45 -6 1 42 c1 38 2 39 8
11 6 -28 9 -30 47 -27z"/>
</g>
</svg>
